<?xml version="1.0" encoding="UTF-8"?>
<svg width="700pt" height="700pt" version="1.1" viewBox="0 0 700 700" xmlns="http://www.w3.org/2000/svg">
 <path d="m484.93 390.07-71.926-71.926c24.977-33.375 31.27-77.16 16.699-116.21-14.57-39.059-48.004-68.027-88.738-76.887-40.734-8.8594-83.18 3.6055-112.66 33.082-29.477 29.477-41.941 71.922-33.082 112.66s37.828 74.168 76.883 88.738c39.059 14.57 82.844 8.2812 116.22-16.699l71.926 71.926c4.5039 3.8594 10.656 5.1719 16.348 3.4883 5.6875-1.6797 10.137-6.1289 11.816-11.816 1.6836-5.6875 0.36719-11.84-3.4883-16.348zm-257.43-145.07c-0.007812-29.215 14.57-56.508 38.852-72.75 24.285-16.242 55.074-19.293 82.074-8.1328 27 11.16 46.648 35.059 52.375 63.707 5.7305 28.648-3.2188 58.266-23.852 78.949-16.395 16.438-38.652 25.688-61.871 25.707-23.215 0.023437-45.488-9.1836-61.914-25.594-16.426-16.406-25.66-38.668-25.664-61.887z"/>
</svg>
