<?xml version="1.0" encoding="UTF-8"?>
<svg width="700pt" height="700pt" version="1.1" viewBox="0 0 700 700" xmlns="http://www.w3.org/2000/svg">
 <path d="m526.24 156.31c-9.8633-10.453-23.617-16.359-37.992-16.309h-33.25c0-37.512-20.012-72.176-52.5-90.934-32.488-18.754-72.512-18.754-105 0-32.488 18.758-52.5 53.422-52.5 90.934h-33.25c-14.391-0.019531-28.156 5.8711-38.082 16.293s-15.137 24.461-14.418 38.832l14 280c0.67578 13.465 6.5 26.152 16.273 35.438 9.7734 9.2852 22.746 14.453 36.227 14.438h248.5c13.48 0.015625 26.453-5.1523 36.227-14.438 9.7734-9.2852 15.598-21.973 16.273-35.438l14-280c0.73828-14.387-4.5117-28.438-14.508-38.816zm-176.24-86.309c18.566 0 36.371 7.375 49.496 20.504 13.129 13.125 20.504 30.93 20.504 49.496h-140c0-18.566 7.375-36.371 20.504-49.496 13.125-13.129 30.93-20.504 49.496-20.504zm141.75 403.38c-0.22656 4.4883-2.168 8.7188-5.4258 11.812-3.2578 3.0938-7.582 4.8164-12.074 4.8125h-248.5c-4.4922 0.003906-8.8164-1.7188-12.074-4.8125-3.2578-3.0938-5.1992-7.3242-5.4258-11.812l-14-280c-0.23828-4.7891 1.4961-9.4688 4.8047-12.945 3.3086-3.4727 7.8984-5.4375 12.695-5.4297h33.25v35c0 6.2539 3.3359 12.031 8.75 15.156s12.086 3.125 17.5 0 8.75-8.9023 8.75-15.156v-35h140v35c0 6.2539 3.3359 12.031 8.75 15.156s12.086 3.125 17.5 0 8.75-8.9023 8.75-15.156v-35h33.25c4.7969-0.007812 9.3867 1.957 12.695 5.4297 3.3086 3.4766 5.043 8.1562 4.8047 12.945z"/>
</svg>
